# xmcd
#
# Track frame offsets: 
#        150
#        11098
#        20961
#        36655
#        47602
#        56757
#        68501
#        79289
#        89835
#        104513
#        115685
#        116135
#        116585
#        117035
#
# Disc length: 1564 seconds
#
# Revision: 0
# Processed by: cddbd v1.5.2PL0 Copyright (c) Steve Scherf et al.
# Submitted via: ExactAudioCopy v0.99pb3
#
DISCID=c8061a0e
DTITLE=White Lightning - White Lightning [MCD]
DYEAR=2010
DGENRE=Redneck Country
TTITLE0=Niggers are People Too
TTITLE1=Hate Crime
TTITLE2=Starve a Jew Feed a Beaver
TTITLE3=Mexicans won't Do
TTITLE4=Give a Nog a Bone
TTITLE5=Civil Wrongs
TTITLE6=Back of the Oven
TTITLE7=Pussified White Man
TTITLE8=He Ain't My President
TTITLE9=White Lightning
TTITLE10=[untitled I]
TTITLE11=[untitled II]
TTITLE12=[untitled III]
TTITLE13=[untitled IV]
EXTD=
EXTT0=
EXTT1=
EXTT2=
EXTT3=
EXTT4=
EXTT5=
EXTT6=
EXTT7=
EXTT8=
EXTT9=
EXTT10=
EXTT11=
EXTT12=
EXTT13=
PLAYORDER=
